<?xml version="1.0" encoding="utf-8"?>

<!-- The icon can be used freely in both personal and commercial projects with no attribution required, but always appreciated.
You may NOT sub-license, resell, rent, redistribute or otherwise transfer the icon without express written permission from iconmonstr.com -->

<!DOCTYPE svg PUBLIC "-//W3C//DTD SVG 1.1//EN" "http://www.w3.org/Graphics/SVG/1.1/DTD/svg11.dtd">
<svg version="1.1" xmlns="http://www.w3.org/2000/svg" xmlns:xlink="http://www.w3.org/1999/xlink" x="0px" y="0px"
	 width="512px" height="512px" viewBox="0 0 512 512" enable-background="new 0 0 512 512" xml:space="preserve">
<path fill="#164654" id="shop-9-icon" d="M384.158,296.668c-42.963,0-77.792,34.828-77.792,77.791s34.829,77.791,77.792,77.791
	s77.792-34.828,77.792-77.791S427.121,296.668,384.158,296.668z M370.923,416.359l-36.752-36.762l15.648-15.652l21.104,21.109
	l48.721-48.721l15.656,15.645L370.923,416.359z M222.839,162.422v-17.34h0.081l16.729-85.332h32.703l16.729,85.332h0.081v17.34
	c0,18.314-14.847,33.161-33.161,33.161S222.839,180.736,222.839,162.422z M395.678,145.082l-51.91-85.332h34.566L462,145.082v17.34
	c0,18.314-14.847,33.161-33.161,33.161s-33.161-14.847-33.161-33.161V145.082z M309.178,145.082L291.38,59.75h33.359l50.841,85.332
	v17.34c0,18.314-14.846,33.161-33.16,33.161s-33.161-14.847-33.161-33.161v-17.34H309.178z M309.549,452.25H79.792v-235h352.75
	v60.826c-10.912-5.491-22.717-9.079-35-10.591V252.25h-282.75v129.5h161.822c1.729,26.047,12.693,50.299,31.324,68.929
	C308.47,451.21,309.009,451.731,309.549,452.25z M136.42,145.082l50.841-85.332h33.359l-17.798,85.332h-0.081v17.34
	c0,18.314-14.847,33.161-33.161,33.161s-33.16-14.847-33.16-33.161V145.082z M83.161,195.583C64.847,195.583,50,180.736,50,162.422
	v-17.34l83.666-85.332h34.566l-51.91,85.332v17.34C116.322,180.736,101.476,195.583,83.161,195.583z"/>
</svg>
